<svg width="97" height="54" viewBox="0 0 97 54" fill="none" xmlns="http://www.w3.org/2000/svg">
<path d="M5.376 32.632H13.184V35H2.464V12.696H5.376V32.632ZM23.9245 35.288C22.2818 35.288 20.7885 34.9147 19.4445 34.168C18.1218 33.4213 17.0765 32.3653 16.3085 31C15.5618 29.6133 15.1885 28.0133 15.1885 26.2C15.1885 24.408 15.5725 22.8293 16.3405 21.464C17.1298 20.0773 18.1965 19.0213 19.5405 18.296C20.8845 17.5493 22.3885 17.176 24.0525 17.176C25.7165 17.176 27.2205 17.5493 28.5645 18.296C29.9085 19.0213 30.9645 20.0667 31.7325 21.432C32.5218 22.7973 32.9165 24.3867 32.9165 26.2C32.9165 28.0133 32.5112 29.6133 31.7005 31C30.9112 32.3653 29.8338 33.4213 28.4685 34.168C27.1032 34.9147 25.5885 35.288 23.9245 35.288ZM23.9245 32.728C24.9698 32.728 25.9512 32.4827 26.8685 31.992C27.7858 31.5013 28.5218 30.7653 29.0765 29.784C29.6525 28.8027 29.9405 27.608 29.9405 26.2C29.9405 24.792 29.6632 23.5973 29.1085 22.616C28.5538 21.6347 27.8285 20.9093 26.9325 20.44C26.0365 19.9493 25.0658 19.704 24.0205 19.704C22.9538 19.704 21.9725 19.9493 21.0765 20.44C20.2018 20.9093 19.4978 21.6347 18.9645 22.616C18.4312 23.5973 18.1645 24.792 18.1645 26.2C18.1645 27.6293 18.4205 28.8347 18.9325 29.816C19.4658 30.7973 20.1698 31.5333 21.0445 32.024C21.9192 32.4933 22.8792 32.728 23.9245 32.728ZM44.3933 35.288C42.7506 35.288 41.2573 34.9147 39.9133 34.168C38.5906 33.4213 37.5453 32.3653 36.7773 31C36.0306 29.6133 35.6573 28.0133 35.6573 26.2C35.6573 24.408 36.0413 22.8293 36.8093 21.464C37.5986 20.0773 38.6653 19.0213 40.0093 18.296C41.3533 17.5493 42.8573 17.176 44.5213 17.176C46.1853 17.176 47.6893 17.5493 49.0333 18.296C50.3773 19.0213 51.4333 20.0667 52.2013 21.432C52.9906 22.7973 53.3853 24.3867 53.3853 26.2C53.3853 28.0133 52.9799 29.6133 52.1693 31C51.3799 32.3653 50.3026 33.4213 48.9373 34.168C47.5719 34.9147 46.0573 35.288 44.3933 35.288ZM44.3933 32.728C45.4386 32.728 46.4199 32.4827 47.3373 31.992C48.2546 31.5013 48.9906 30.7653 49.5453 29.784C50.1213 28.8027 50.4093 27.608 50.4093 26.2C50.4093 24.792 50.1319 23.5973 49.5773 22.616C49.0226 21.6347 48.2973 20.9093 47.4013 20.44C46.5053 19.9493 45.5346 19.704 44.4893 19.704C43.4226 19.704 42.4413 19.9493 41.5453 20.44C40.6706 20.9093 39.9666 21.6347 39.4333 22.616C38.8999 23.5973 38.6333 24.792 38.6333 26.2C38.6333 27.6293 38.8893 28.8347 39.4013 29.816C39.9346 30.7973 40.6386 31.5333 41.5133 32.024C42.3879 32.4933 43.3479 32.728 44.3933 32.728ZM67.006 35L60.126 27.256V35H57.214V11.32H60.126V25.24L66.878 17.464H70.942L62.686 26.2L70.974 35H67.006ZM91.5708 39.224L87.1228 34.776C86.0348 35.0747 84.9254 35.224 83.7948 35.224C81.7254 35.224 79.8374 34.744 78.1308 33.784C76.4241 32.8027 75.0694 31.448 74.0668 29.72C73.0854 27.9707 72.5948 26.008 72.5948 23.832C72.5948 21.656 73.0854 19.704 74.0668 17.976C75.0694 16.2267 76.4241 14.872 78.1308 13.912C79.8374 12.9307 81.7254 12.44 83.7948 12.44C85.8854 12.44 87.7841 12.9307 89.4908 13.912C91.1974 14.872 92.5414 16.216 93.5228 17.944C94.5041 19.672 94.9948 21.6347 94.9948 23.832C94.9948 25.9653 94.5254 27.8853 93.5868 29.592C92.6481 31.2987 91.3574 32.6427 89.7148 33.624L95.3468 39.224H91.5708ZM75.5708 23.832C75.5708 25.6027 75.9228 27.16 76.6268 28.504C77.3521 29.848 78.3334 30.8827 79.5708 31.608C80.8294 32.3333 82.2374 32.696 83.7948 32.696C85.3521 32.696 86.7494 32.3333 87.9868 31.608C89.2454 30.8827 90.2268 29.848 90.9308 28.504C91.6561 27.16 92.0188 25.6027 92.0188 23.832C92.0188 22.04 91.6561 20.4827 90.9308 19.16C90.2268 17.816 89.2561 16.7813 88.0188 16.056C86.7814 15.3307 85.3734 14.968 83.7948 14.968C82.2161 14.968 80.8081 15.3307 79.5708 16.056C78.3334 16.7813 77.3521 17.816 76.6268 19.16C75.9228 20.4827 75.5708 22.04 75.5708 23.832Z" fill="#102A42"/>
<path d="M29 53C56.234 40.0283 78.7872 38.06 89 44.755" stroke="#102A42"/>
</svg>
