<svg width="93" height="33" viewBox="0 0 93 33" fill="none" xmlns="http://www.w3.org/2000/svg">
<path d="M1.992 6.2H5.88V19.832H14.304V23H1.992V6.2ZM24.3311 23.288C22.5871 23.288 21.0111 22.912 19.6031 22.16C18.2111 21.408 17.1151 20.376 16.3151 19.064C15.5311 17.736 15.1391 16.248 15.1391 14.6C15.1391 12.952 15.5311 11.472 16.3151 10.16C17.1151 8.832 18.2111 7.792 19.6031 7.04C21.0111 6.288 22.5871 5.912 24.3311 5.912C26.0751 5.912 27.6431 6.288 29.0351 7.04C30.4271 7.792 31.5231 8.832 32.3231 10.16C33.1231 11.472 33.5231 12.952 33.5231 14.6C33.5231 16.248 33.1231 17.736 32.3231 19.064C31.5231 20.376 30.4271 21.408 29.0351 22.16C27.6431 22.912 26.0751 23.288 24.3311 23.288ZM24.3311 19.976C25.3231 19.976 26.2191 19.752 27.0191 19.304C27.8191 18.84 28.4431 18.2 28.8911 17.384C29.3551 16.568 29.5871 15.64 29.5871 14.6C29.5871 13.56 29.3551 12.632 28.8911 11.816C28.4431 11 27.8191 10.368 27.0191 9.92C26.2191 9.456 25.3231 9.224 24.3311 9.224C23.3391 9.224 22.4431 9.456 21.6431 9.92C20.8431 10.368 20.2111 11 19.7471 11.816C19.2991 12.632 19.0751 13.56 19.0751 14.6C19.0751 15.64 19.2991 16.568 19.7471 17.384C20.2111 18.2 20.8431 18.84 21.6431 19.304C22.4431 19.752 23.3391 19.976 24.3311 19.976ZM44.5811 23.288C42.8371 23.288 41.2611 22.912 39.8531 22.16C38.4611 21.408 37.3651 20.376 36.5651 19.064C35.7811 17.736 35.3891 16.248 35.3891 14.6C35.3891 12.952 35.7811 11.472 36.5651 10.16C37.3651 8.832 38.4611 7.792 39.8531 7.04C41.2611 6.288 42.8371 5.912 44.5811 5.912C46.3251 5.912 47.8931 6.288 49.2851 7.04C50.6771 7.792 51.7731 8.832 52.5731 10.16C53.3731 11.472 53.7731 12.952 53.7731 14.6C53.7731 16.248 53.3731 17.736 52.5731 19.064C51.7731 20.376 50.6771 21.408 49.2851 22.16C47.8931 22.912 46.3251 23.288 44.5811 23.288ZM44.5811 19.976C45.5731 19.976 46.4691 19.752 47.2691 19.304C48.0691 18.84 48.6931 18.2 49.1411 17.384C49.6051 16.568 49.8371 15.64 49.8371 14.6C49.8371 13.56 49.6051 12.632 49.1411 11.816C48.6931 11 48.0691 10.368 47.2691 9.92C46.4691 9.456 45.5731 9.224 44.5811 9.224C43.5891 9.224 42.6931 9.456 41.8931 9.92C41.0931 10.368 40.4611 11 39.9971 11.816C39.5491 12.632 39.3251 13.56 39.3251 14.6C39.3251 15.64 39.5491 16.568 39.9971 17.384C40.4611 18.2 41.0931 18.84 41.8931 19.304C42.6931 19.752 43.5891 19.976 44.5811 19.976ZM62.8151 16.4L60.5591 18.752V23H56.6951V6.2H60.5591V14.048L67.9991 6.2H72.3191L65.3591 13.688L72.7271 23H68.1911L62.8151 16.4ZM92.0194 24.8C91.4754 25.472 90.8114 25.984 90.0274 26.336C89.2594 26.688 88.4114 26.864 87.4834 26.864C86.2354 26.864 85.1074 26.592 84.0994 26.048C83.0914 25.52 81.9394 24.576 80.6434 23.216C79.1234 23.024 77.7634 22.536 76.5634 21.752C75.3794 20.968 74.4514 19.96 73.7794 18.728C73.1234 17.48 72.7954 16.104 72.7954 14.6C72.7954 12.952 73.1874 11.472 73.9714 10.16C74.7714 8.832 75.8674 7.792 77.2594 7.04C78.6674 6.288 80.2434 5.912 81.9874 5.912C83.7314 5.912 85.2994 6.288 86.6914 7.04C88.0834 7.792 89.1794 8.832 89.9794 10.16C90.7794 11.472 91.1794 12.952 91.1794 14.6C91.1794 16.552 90.6274 18.264 89.5234 19.736C88.4354 21.208 86.9874 22.232 85.1794 22.808C85.5794 23.224 85.9634 23.52 86.3314 23.696C86.7154 23.888 87.1234 23.984 87.5554 23.984C88.5954 23.984 89.5074 23.568 90.2914 22.736L92.0194 24.8ZM76.7314 14.6C76.7314 15.64 76.9554 16.568 77.4034 17.384C77.8674 18.2 78.4994 18.84 79.2994 19.304C80.0994 19.752 80.9954 19.976 81.9874 19.976C82.9794 19.976 83.8754 19.752 84.6754 19.304C85.4754 18.84 86.0994 18.2 86.5474 17.384C87.0114 16.568 87.2434 15.64 87.2434 14.6C87.2434 13.56 87.0114 12.632 86.5474 11.816C86.0994 11 85.4754 10.368 84.6754 9.92C83.8754 9.456 82.9794 9.224 81.9874 9.224C80.9954 9.224 80.0994 9.456 79.2994 9.92C78.4994 10.368 77.8674 11 77.4034 11.816C76.9554 12.632 76.7314 13.56 76.7314 14.6Z" fill="#053866"/>
<path d="M1.5 30.5H71.5" stroke="#2CAEBA" stroke-width="5"/>
</svg>
